<?xml version="1.0" encoding="utf-8"?>
<!-- Generator: Adobe Illustrator 14.0.0, SVG Export Plug-In . SVG Version: 6.00 Build 43363)  -->
<!DOCTYPE svg PUBLIC "-//W3C//DTD SVG 1.1//EN" "http://www.w3.org/Graphics/SVG/1.1/DTD/svg11.dtd">
<svg version="1.1" id="Layer_1" xmlns="http://www.w3.org/2000/svg" xmlns:xlink="http://www.w3.org/1999/xlink" x="0px" y="0px"
	 width="48px" height="48px" viewBox="0 0 48 48" enable-background="new 0 0 48 48" xml:space="preserve">
<path fill="none" stroke="#000000" stroke-width="3" d="M4.917,9.959c2.527,0,4.847-0.374,6.722,1.7
	c1.493,1.651,3.696,3.354,4.278,5.55c0.89,3.357-0.945,7.856,1.186,10.815c1.153,1.602,2.164,2.623,4,3.412
	c3.595,1.541,7.417,1.438,11.321,1.438c2.443,0,4.885,0,7.328,0"/>
<path fill="none" stroke="#000000" stroke-width="3" d="M17.083,18.542c7.557,0,15.112,0,22.668,0"/>
<path fill="none" stroke="#000000" stroke-width="3" d="M22.208,19.709c0,3.833,0,7.667,0,11.5"/>
<path fill="none" stroke="#000000" stroke-width="3" d="M34.584,19.626c0,4.111,0,8.222,0,12.333"/>
<path fill="none" stroke="#000000" stroke-width="3" d="M28.125,19.251c0,3.124-0.092,6.252-0.084,9.371
	c0.006,1.755,0.117,3.509,0.125,5.254"/>
<path fill="none" stroke="#000000" stroke-width="3" d="M16.958,25.834c7.599,0,15.196,0,22.794,0"/>
<path d="M37.145,35.105c-3.225,0-3.225,5,0,5S40.369,35.105,37.145,35.105z"/>
<path d="M19.563,35.105c-3.225,0-3.225,5,0,5S22.788,35.105,19.563,35.105z"/>
</svg>
