<?xml version="1.0" encoding="utf-8"?>
<!-- Generator: Adobe Illustrator 14.0.0, SVG Export Plug-In . SVG Version: 6.00 Build 43363)  -->
<!DOCTYPE svg PUBLIC "-//W3C//DTD SVG 1.1//EN" "http://www.w3.org/Graphics/SVG/1.1/DTD/svg11.dtd">
<svg version="1.1" id="Layer_1" xmlns="http://www.w3.org/2000/svg" xmlns:xlink="http://www.w3.org/1999/xlink" x="0px" y="0px"
	 width="48px" height="48px" viewBox="0 0 48 48" enable-background="new 0 0 48 48" xml:space="preserve">
<path fill="#C18C38" d="M37.332,39.063c0,2.209-1.791,4-4,4H14.666c-2.209,0-4-1.791-4-4v-24.25c0-2.209,1.791-4,4-4h18.666
	c2.209,0,4,1.791,4,4V39.063z"/>
<path fill="#FFFFFF" d="M33.907,39.342c0,1.594-1.33,2.887-2.971,2.887h-13.87c-1.643,0-2.974-1.293-2.974-2.887V21.831
	c0-1.595,1.332-2.888,2.974-2.888h13.87c1.641,0,2.971,1.293,2.971,2.888V39.342z"/>
<path fill="#91692D" d="M32.697,38.496c0,1.441-1.168,2.609-2.609,2.609H17.912c-1.441,0-2.61-1.168-2.61-2.609v-15.82
	c0-1.441,1.169-2.609,2.61-2.609h12.176c1.441,0,2.609,1.168,2.609,2.609V38.496z"/>
<g>
	<line fill="none" stroke="#000000" x1="18.554" y1="10.375" x2="18.554" y2="4.938"/>
	<line fill="none" stroke="#000000" x1="29.461" y1="10.375" x2="29.461" y2="4.938"/>
	<line fill="none" stroke="#000000" x1="18.054" y1="5.407" x2="29.945" y2="5.407"/>
</g>
<path fill="#FFFFFF" d="M31.44,38.226c0,0.899-0.999,1.629-2.229,1.629H18.793c-1.234,0-2.233-0.729-2.233-1.629v-9.88
	c0-0.899,1-1.63,2.233-1.63h10.418c1.23,0,2.229,0.73,2.229,1.63V38.226z"/>
<path fill="#6B4D25" d="M30.316,37.566c0,0.757-0.848,1.371-1.896,1.371h-8.843c-1.046,0-1.896-0.614-1.896-1.371V29.26
	c0-0.757,0.849-1.371,1.896-1.371h8.843c1.048,0,1.896,0.614,1.896,1.371V37.566z"/>
</svg>
